<svg width="20" height="17" viewBox="0 0 20 17" fill="none" xmlns="http://www.w3.org/2000/svg">
<path d="M16.7993 -0.000244141C16.7467 0.0553054 16.7993 0.0611621 16.8344 0.0640857C16.9873 0.0828794 17.1387 0.112182 17.2876 0.151792C17.8193 0.277026 18.3103 0.535617 18.7143 0.903175C18.764 0.949954 18.8079 1.00258 18.8518 1.05229C18.8678 1.15579 18.8614 1.26151 18.8332 1.36237C18.805 1.46323 18.7555 1.55688 18.688 1.63702C18.62 1.72504 18.5447 1.80719 18.4629 1.8826C18.3735 1.9856 18.2608 2.06584 18.1342 2.11668C18.0076 2.16752 17.8708 2.18749 17.7349 2.17496C17.4062 1.8574 16.9749 1.66767 16.5187 1.63994C16.0044 1.59895 15.4868 1.64842 14.9896 1.78613C14.0156 2.04368 13.0862 2.44681 12.2326 2.9819C11.8551 3.19699 11.4945 3.44035 11.1538 3.70988C11.107 3.73912 11.0573 3.76545 11.0134 3.79761C10.6723 4.05294 10.34 4.31997 10.0164 4.59869C9.96445 4.6326 9.92054 4.6775 9.8878 4.73024C9.83048 4.75434 9.78019 4.79256 9.74162 4.84134C9.2825 5.25272 8.84437 5.68695 8.4289 6.14237C7.40878 7.23664 6.55652 8.47611 5.89993 9.82035C5.74108 10.129 5.61186 10.4521 5.51401 10.7852C5.27516 11.3724 5.14824 11.999 5.13978 12.6329C5.10941 12.9224 5.14117 13.2151 5.23293 13.4914C5.32469 13.7677 5.47434 14.0212 5.67188 14.2351C5.66838 14.5286 5.55242 14.8095 5.34789 15.02C5.14336 15.2306 4.86585 15.3546 4.57259 15.3665C4.25067 15.0817 4.00028 14.7252 3.84167 14.3257C3.58803 13.6874 3.48789 12.9984 3.5493 12.3142C3.58338 11.9383 3.63804 11.5645 3.71303 11.1945C3.86832 10.602 4.06368 10.0208 4.29776 9.45489C4.48488 9.07189 4.66614 8.68305 4.8825 8.30882C5.77446 6.74902 6.89052 5.32856 8.195 4.09288L8.59555 3.70405C8.61868 3.69327 8.64031 3.67951 8.65987 3.66311C9.0263 3.33371 9.4054 3.01796 9.79717 2.71585C9.82265 2.69766 9.84201 2.67217 9.85272 2.64276C9.91997 2.64276 9.9609 2.59013 10.0106 2.55213C10.5077 2.17929 11.0261 1.83567 11.5631 1.52299C12.5838 0.902117 13.6971 0.44812 14.861 0.178113C15.0674 0.132407 15.2763 0.0982342 15.4866 0.0757739C15.5422 0.0757739 15.5422 0.0757768 15.5626 0.00560889L16.7993 -0.000244141Z" fill="#FD9A00"/>
<path d="M6.30344 16.2523C6.35022 16.188 6.30344 16.188 6.25666 16.1822C6.09221 16.154 5.93001 16.1139 5.77134 16.0623C5.32079 15.929 4.9094 15.6882 4.57263 15.3606C4.8659 15.3487 5.1434 15.2246 5.34793 15.0141C5.55246 14.8036 5.66843 14.5226 5.67193 14.2292C5.8469 14.3685 6.04476 14.4763 6.25666 14.5478C6.74869 14.6872 7.26687 14.7073 7.7682 14.6063C7.91102 14.5995 8.05245 14.575 8.1892 14.5332C8.77705 14.4029 9.34658 14.2006 9.88493 13.9309C9.9434 13.9075 10.0019 13.8871 10.0574 13.8608C11.011 13.3905 11.91 12.8169 12.7384 12.1504C13.2705 11.7294 13.7676 11.2733 14.2587 10.8026C14.3176 10.9192 14.3608 11.0431 14.3874 11.171C14.5441 11.6496 14.626 12.1496 14.63 12.6533C14.5803 12.6913 14.5306 12.7264 14.4838 12.7673C13.977 13.2163 13.4451 13.6361 12.8905 14.0245C12.5981 14.2204 12.3262 14.4075 12.0426 14.6092C11.6537 14.8227 11.2737 15.0565 10.8731 15.2466L9.94633 15.6705L9.84107 15.6997C9.51362 15.8167 9.1891 15.9307 8.85287 16.0155C8.56463 16.0937 8.27166 16.1532 7.97578 16.1938C7.90853 16.1938 7.90853 16.1938 7.87053 16.264L6.30344 16.2523Z" fill="#FD5805"/>
<path d="M3.73059 11.1886C3.45509 10.9128 3.1973 10.6199 2.95875 10.3115C2.20945 9.39524 1.56515 8.3979 1.0379 7.33816C0.610264 6.49375 0.304148 5.59311 0.128642 4.663C0.102329 4.52267 0.0877115 4.37063 0.0701695 4.23907C0.0701695 4.19814 0.0701679 4.14552 0 4.15721V3.10178C0.0789389 3.10178 0.0643216 3.01991 0.0672452 2.97021C0.101099 2.6502 0.178818 2.33638 0.298215 2.03756C0.426314 1.67525 0.632986 1.34578 0.903413 1.07275C0.920683 1.36317 1.04558 1.63671 1.25372 1.83998C1.46185 2.04325 1.73828 2.16164 2.02902 2.17204C1.85802 2.40909 1.7376 2.67879 1.67526 2.96436C1.59761 3.3685 1.59167 3.78316 1.65772 4.18937C1.77344 4.92717 1.99602 5.64418 2.31846 6.31781C2.84387 7.44461 3.51526 8.49739 4.31533 9.44904C4.08125 10.015 3.88589 10.5962 3.73059 11.1886Z" fill="#009946"/>
<path d="M2.02026 2.17203C1.72952 2.16164 1.45309 2.04325 1.24495 1.83998C1.03682 1.63671 0.911923 1.36317 0.894653 1.07275C0.941132 1.00725 0.995096 0.947384 1.05545 0.894396C1.51654 0.484812 2.08419 0.21417 2.6927 0.113783C2.83304 0.08747 2.98507 0.0757718 3.11664 0.0553062C3.14003 0.0553062 3.20435 0.0553054 3.16634 -0.000244141H4.02297C3.99373 0.0202215 3.99666 0.0436087 4.02297 0.0523796C4.05821 0.0624717 4.09452 0.068377 4.13115 0.0699387C4.61329 0.12015 5.08925 0.218085 5.55205 0.362305C7.11586 0.856288 8.57842 1.62667 9.8703 2.63691C9.85959 2.66632 9.84022 2.6918 9.81475 2.71C9.42492 3.01211 9.04582 3.32786 8.67744 3.65726C8.65788 3.67365 8.63625 3.68742 8.61312 3.6982C8.60195 3.68411 8.5892 3.67135 8.57511 3.66019C7.68327 3.00207 6.70799 2.46526 5.67484 2.06386C4.98246 1.77986 4.24213 1.631 3.49379 1.62531C3.22411 1.61337 2.95477 1.65561 2.70168 1.74951C2.44859 1.84341 2.21689 1.98708 2.02026 2.17203Z" fill="#F3AEC9"/>
<path d="M9.94336 15.6586L10.8702 15.2346C11.2736 15.0446 11.6537 14.8107 12.0396 14.5973C12.7618 14.7054 13.4605 14.685 14.0862 14.2347C14.056 14.3896 14.0875 14.5501 14.1739 14.6821C14.2963 14.8998 14.4699 15.0844 14.6797 15.22C14.8282 15.3257 15.0098 15.3745 15.1913 15.3574C14.8984 15.644 14.5447 15.8609 14.1564 15.9919C13.9303 16.0768 13.6962 16.1385 13.4576 16.1761C13.4167 16.1761 13.3494 16.1761 13.364 16.2521H12.0192C12.0192 16.1761 11.9548 16.1878 11.9139 16.1819C11.6298 16.1509 11.3484 16.0991 11.0719 16.0269C10.6854 15.9382 10.3077 15.8149 9.94336 15.6586Z" fill="#009946"/>
<path d="M15.1913 15.3577C15.0098 15.3747 14.8283 15.3259 14.6797 15.2203C14.4699 15.0847 14.2963 14.9001 14.1739 14.6823C14.0875 14.5504 14.056 14.3898 14.0862 14.235C14.2831 14.0245 14.4333 13.7748 14.5271 13.5022C14.6208 13.2297 14.6558 12.9404 14.63 12.6533C14.626 12.1497 14.5441 11.6497 14.3873 11.171C14.3608 11.0431 14.3176 10.9192 14.2587 10.8026C14.1673 10.4937 14.0489 10.1933 13.9049 9.90506C13.4132 8.86384 12.7956 7.88686 12.0659 6.99601C11.4093 6.17517 10.6803 5.41491 9.88782 4.72433C9.92055 4.67159 9.96446 4.62667 10.0165 4.59277C10.3381 4.31209 10.6704 4.04507 11.0134 3.79169C11.0573 3.75953 11.107 3.73322 11.1538 3.70398C11.5777 4.10744 11.9987 4.5109 12.3963 4.94068C13.3342 5.94632 14.1542 7.05572 14.8405 8.24734C15.0656 8.64204 15.2586 9.05136 15.4574 9.45775L15.7118 10.1126C15.8462 10.4723 15.9456 10.8406 16.0509 11.2061C16.0948 11.4634 16.1474 11.7177 16.1795 11.9779C16.3048 12.7859 16.2036 13.6127 15.8872 14.3666C15.7328 14.7451 15.4949 15.0839 15.1913 15.3577Z" fill="#F3AEC9"/>
<path d="M16.0568 11.206C15.9515 10.8405 15.8521 10.4722 15.7176 10.1125L15.4633 9.46057L15.5042 9.41964C16.2264 8.55511 16.8437 7.60806 17.3432 6.5983C17.8012 5.72574 18.0805 4.77054 18.1647 3.78866C18.2331 3.21372 18.0794 2.63436 17.7349 2.16896C17.8708 2.18149 18.0076 2.1615 18.1342 2.11066C18.2608 2.05982 18.3735 1.9796 18.4629 1.87659C18.5447 1.80118 18.62 1.71902 18.6881 1.631C18.7555 1.55086 18.805 1.45723 18.8332 1.35637C18.8615 1.25551 18.8678 1.14977 18.8518 1.04626C19.1847 1.38441 19.4296 1.799 19.5652 2.25374C19.7443 2.8512 19.801 3.47868 19.7318 4.09857C19.5963 5.29378 19.2331 6.45195 18.6617 7.51048C17.9815 8.82768 17.128 10.0479 16.124 11.1388L16.0568 11.206Z" fill="#FD5805"/>
<path d="M5.514 10.7792C5.90577 11.1563 6.30046 11.5247 6.71562 11.8726C7.67014 12.6867 8.72549 13.3746 9.85564 13.9192L9.88488 13.9397C9.34653 14.2093 8.77699 14.4116 8.18915 14.5419C8.0524 14.5837 7.91097 14.6083 7.76814 14.615C7.74021 14.5901 7.71093 14.5666 7.68043 14.5449C7.11546 14.1957 6.57257 13.8119 6.05488 13.3959C5.76251 13.1473 5.44383 12.8901 5.13977 12.6357C5.14714 11.9989 5.27408 11.3691 5.514 10.7792Z" fill="#009946"/>
</svg>
