<svg width="14" height="17" viewBox="0 0 14 17" fill="none" xmlns="http://www.w3.org/2000/svg">
<path d="M3.30047 13.5971C2.43762 13.5971 1.57207 13.5729 0.709217 13.5971C0.169935 13.5971 -0.0781357 13.465 0.0216315 12.8421C0.66877 8.83528 1.29793 4.82482 1.90912 0.810762C2.00349 0.190588 2.26505 -0.0224284 2.88522 0.00183933C4.45992 0.0368927 6.04002 -0.0116407 7.61472 0.0207162C9.98756 0.0665551 11.6189 1.63856 11.7079 3.90085C11.2926 3.72951 10.8643 3.59156 10.4271 3.4883C8.758 3.24831 7.08083 3.43167 5.40636 3.38314C5.08279 3.38314 4.90483 3.57998 4.86708 3.90354C4.80237 4.34845 4.69721 4.78796 4.66215 5.23287C4.57047 6.36536 4.18758 7.45741 4.22264 8.60338C4.10137 9.01579 4.01124 9.43671 3.953 9.86261C3.74268 11.0976 3.51348 12.346 3.30047 13.5971Z" fill="#003087"/>
<path d="M3.3004 13.5973C3.51342 12.3462 3.74261 11.0977 3.93406 9.84661C3.99229 9.42071 4.08243 8.99978 4.2037 8.58738C5.01262 8.47143 5.79997 8.5712 6.59811 8.53076C7.52909 8.52845 8.44543 8.2989 9.26755 7.86205C10.7802 6.98571 11.4894 5.62133 11.7402 3.95764C13.7463 4.99576 14.3395 7.46297 13.0614 9.5446C12.6457 10.2592 12.0495 10.8521 11.3325 11.2638C10.6156 11.6755 9.80308 11.8916 8.97634 11.8905C8.54222 11.904 8.11079 11.9094 7.67937 11.8905C7.19132 11.8662 6.98909 12.0954 6.92168 12.5646C6.7545 13.7645 6.53339 14.9536 6.3824 16.1535C6.3042 16.7521 6.06691 17.0433 5.42247 16.9948C4.82117 16.9489 4.21448 16.9948 3.60779 16.9948C2.9229 16.9948 2.82313 16.8681 2.9229 16.1724C3.04694 15.3041 3.17636 14.4521 3.3004 13.5973Z" fill="#0270E0"/>
<path d="M11.7484 3.95745C11.4976 5.62114 10.7885 6.98552 9.27577 7.86186C8.45365 8.29871 7.53731 8.52826 6.60633 8.53057C5.7974 8.57102 5.00736 8.47125 4.21192 8.58719C4.17686 7.44122 4.55975 6.34917 4.65143 5.21668C4.68648 4.77177 4.79164 4.33226 4.85636 3.88735C4.9022 3.56378 5.08016 3.34807 5.39564 3.36695C7.07011 3.41548 8.74728 3.23212 10.4164 3.4721C10.8536 3.57537 11.2819 3.71332 11.6971 3.88465C11.7134 3.88793 11.7277 3.8973 11.7373 3.91085C11.7468 3.92439 11.7508 3.94107 11.7484 3.95745Z" fill="#001C64"/>
</svg>
