<svg width="17" height="19" viewBox="0 0 17 19" fill="none" xmlns="http://www.w3.org/2000/svg">
<path d="M16.63 0C16.1625 1.77299 15.6924 3.54464 15.2196 5.31495C14.0215 9.78235 12.8247 14.2524 11.6293 18.7252C11.626 18.7668 11.6141 18.8072 11.5942 18.8439C11.5743 18.8805 11.547 18.9126 11.514 18.9381C11.4809 18.9635 11.4429 18.9817 11.4024 18.9916C11.3619 19.0014 11.3198 19.0027 11.2787 18.9952C10.219 18.9952 9.16324 18.9952 8.05511 18.9952C8.2445 18.286 8.41374 17.6252 8.59104 16.9804L11.4117 6.46739C11.4253 6.4009 11.4348 6.3336 11.4399 6.26592L11.4681 6.22965H11.3996L6.23779 9.5661L6.64075 8.12756C6.78984 7.57148 6.94296 7.02347 7.07996 6.46739C7.10259 6.37463 7.14392 6.28747 7.20143 6.21125C7.25895 6.13503 7.33142 6.07136 7.41441 6.02414L16.3076 0.261923C16.4043 0.20148 16.5292 0.17327 16.5655 0.0443251C16.5655 0.0443251 16.5655 0.0443251 16.5453 0.0443251H16.5211L16.63 0Z" fill="#3395FF"/>
<path d="M0.00403346 18.8457C0.165215 18.7974 0.141031 18.6443 0.173267 18.5314C0.57622 16.9962 1.00336 15.4569 1.40631 13.9136C1.43042 13.8067 1.47608 13.7058 1.54051 13.6171C1.60495 13.5284 1.6868 13.4538 1.78106 13.3978C4.46741 11.6705 7.15376 9.93781 9.84012 8.19974C9.90459 8.15541 9.96099 8.09497 10.0456 8.10302C10.1302 8.11108 10.0859 8.20779 10.0698 8.26018C9.14301 11.7524 8.21487 15.2353 7.2854 18.7087C7.24107 18.882 7.17257 18.9747 6.97109 18.9747H0L0.00403346 18.8457Z" fill="#072654"/>
<path d="M11.4076 6.20923H11.4761L11.4479 6.24549L11.4076 6.20923Z" fill="white"/>
</svg>
