<svg width="12" height="17" viewBox="0 0 12 17" fill="none" xmlns="http://www.w3.org/2000/svg">
<path d="M10.4064 4.95909C9.432 4.52319 8.41231 4.19658 7.366 3.98525C6.75516 3.87581 6.13248 3.84813 5.51435 3.90295C5.29156 3.89608 5.07328 3.96656 4.89658 4.10242C4.71988 4.23827 4.59568 4.43112 4.54508 4.64819C4.50949 4.85547 4.54644 5.06869 4.64971 5.25191C4.75298 5.43513 4.91625 5.57714 5.11201 5.65403C5.80499 5.99919 6.52523 6.28668 7.26542 6.51356C7.52602 6.62329 7.79577 6.71016 8.06095 6.81989C10.4978 7.84859 11.4305 9.29334 11.2293 11.7119C11.0648 13.6962 9.58342 15.3055 7.366 15.8267C5.15638 16.3233 2.84814 16.1383 0.745748 15.2964C0.476 15.1958 0.224541 15.1043 0.224541 14.7294C0.224541 13.5179 0.224541 12.3063 0.224541 10.985C1.09779 11.305 1.87961 11.6113 2.67056 11.8719C3.52504 12.1751 4.43043 12.3086 5.33604 12.2651C5.91211 12.2286 6.52476 12.1463 6.70764 11.465C6.89052 10.7838 6.36931 10.354 5.79324 10.0934C4.87884 9.69568 3.96444 9.38478 3.05004 9.00073C0.818904 8.08633 -0.150362 6.63701 0.0188022 4.57046C0.0880819 3.55553 0.485426 2.59062 1.15093 1.8212C1.81644 1.05179 2.71403 0.519574 3.7084 0.304793C5.75375 -0.194493 7.90102 -0.0783838 9.8806 0.638546C10.1275 0.720842 10.379 0.771134 10.379 1.12775C10.4018 2.38505 10.4064 3.61492 10.4064 4.95909Z" fill="#6058F7"/>
</svg>
